<mxfile host="app.diagrams.net" modified="2020-06-23T13:04:16.577Z" agent="5.0 (X11)" etag="dfukuGtAXLWXPO8dF7iV" version="13.3.1" type="github">
  <diagram name="Page-1" id="74e2e168-ea6b-b213-b513-2b3c1d86103e">
    <mxGraphModel dx="1422" dy="744" grid="1" gridSize="10" guides="1" tooltips="1" connect="1" arrows="1" fold="1" page="1" pageScale="1" pageWidth="1100" pageHeight="850" background="#ffffff" math="0" shadow="0">
      <root>
        <mxCell id="0" />
        <mxCell id="1" parent="0" />
        <mxCell id="77e6c97f196da883-1" value="D-Dbar correlation analysis flow" style="swimlane;html=1;childLayout=stackLayout;startSize=20;rounded=0;shadow=0;labelBackgroundColor=none;strokeWidth=1;fontFamily=Verdana;fontSize=8;align=center;" parent="1" vertex="1">
          <mxGeometry x="70" y="40" width="680" height="1320" as="geometry" />
        </mxCell>
        <mxCell id="77e6c97f196da883-2" value="Lane 1" style="swimlane;html=1;startSize=20;" parent="77e6c97f196da883-1" vertex="1">
          <mxGeometry y="20" width="160" height="1300" as="geometry" />
        </mxCell>
        <mxCell id="kAKF0bBwQCIukUTh2B5D-12" style="edgeStyle=orthogonalEdgeStyle;rounded=0;orthogonalLoop=1;jettySize=auto;html=1;exitX=0.5;exitY=1;exitDx=0;exitDy=0;entryX=0.5;entryY=0;entryDx=0;entryDy=0;" edge="1" parent="77e6c97f196da883-2" source="kAKF0bBwQCIukUTh2B5D-1" target="77e6c97f196da883-9">
          <mxGeometry relative="1" as="geometry" />
        </mxCell>
        <mxCell id="77e6c97f196da883-9" value="D finder" style="rounded=1;whiteSpace=wrap;html=1;shadow=0;labelBackgroundColor=none;strokeWidth=1;fontFamily=Verdana;fontSize=8;align=center;" parent="77e6c97f196da883-2" vertex="1">
          <mxGeometry x="30" y="155" width="100" height="60" as="geometry" />
        </mxCell>
        <mxCell id="kAKF0bBwQCIukUTh2B5D-1" value="Data" style="shape=cylinder;whiteSpace=wrap;html=1;boundedLbl=1;backgroundOutline=1;" vertex="1" parent="77e6c97f196da883-2">
          <mxGeometry x="50" y="40" width="60" height="80" as="geometry" />
        </mxCell>
        <mxCell id="kAKF0bBwQCIukUTh2B5D-34" style="edgeStyle=orthogonalEdgeStyle;rounded=0;orthogonalLoop=1;jettySize=auto;html=1;exitX=0.5;exitY=1;exitDx=0;exitDy=0;entryX=0.5;entryY=0;entryDx=0;entryDy=0;" edge="1" parent="77e6c97f196da883-2" source="kAKF0bBwQCIukUTh2B5D-26" target="kAKF0bBwQCIukUTh2B5D-33">
          <mxGeometry relative="1" as="geometry" />
        </mxCell>
        <mxCell id="kAKF0bBwQCIukUTh2B5D-26" value="&lt;div&gt;D0 candidates&lt;/div&gt;&lt;div&gt;pT1 &amp;gt; pT1min,&lt;/div&gt;&lt;div&gt;pT2 &amp;gt; pT2min&lt;br&gt;&lt;/div&gt;" style="rounded=0;whiteSpace=wrap;html=1;" vertex="1" parent="77e6c97f196da883-2">
          <mxGeometry x="20" y="350" width="120" height="60" as="geometry" />
        </mxCell>
        <mxCell id="kAKF0bBwQCIukUTh2B5D-38" value="" style="edgeStyle=orthogonalEdgeStyle;rounded=0;orthogonalLoop=1;jettySize=auto;html=1;" edge="1" parent="77e6c97f196da883-2" source="kAKF0bBwQCIukUTh2B5D-33" target="kAKF0bBwQCIukUTh2B5D-37">
          <mxGeometry relative="1" as="geometry" />
        </mxCell>
        <mxCell id="kAKF0bBwQCIukUTh2B5D-33" value="dphi binning" style="rounded=1;whiteSpace=wrap;html=1;" vertex="1" parent="77e6c97f196da883-2">
          <mxGeometry x="20" y="460" width="120" height="60" as="geometry" />
        </mxCell>
        <mxCell id="kAKF0bBwQCIukUTh2B5D-42" style="edgeStyle=orthogonalEdgeStyle;rounded=0;orthogonalLoop=1;jettySize=auto;html=1;exitX=0.5;exitY=1;exitDx=0;exitDy=0;entryX=0.5;entryY=0;entryDx=0;entryDy=0;" edge="1" parent="77e6c97f196da883-2" source="kAKF0bBwQCIukUTh2B5D-37" target="kAKF0bBwQCIukUTh2B5D-40">
          <mxGeometry relative="1" as="geometry" />
        </mxCell>
        <mxCell id="kAKF0bBwQCIukUTh2B5D-37" value="efficiency weighted D0 mass" style="rounded=1;whiteSpace=wrap;html=1;" vertex="1" parent="77e6c97f196da883-2">
          <mxGeometry x="20" y="600" width="120" height="60" as="geometry" />
        </mxCell>
        <mxCell id="kAKF0bBwQCIukUTh2B5D-61" style="edgeStyle=orthogonalEdgeStyle;rounded=0;orthogonalLoop=1;jettySize=auto;html=1;exitX=0.5;exitY=1;exitDx=0;exitDy=0;entryX=0.5;entryY=0;entryDx=0;entryDy=0;" edge="1" parent="77e6c97f196da883-2" source="kAKF0bBwQCIukUTh2B5D-40" target="kAKF0bBwQCIukUTh2B5D-60">
          <mxGeometry relative="1" as="geometry" />
        </mxCell>
        <mxCell id="kAKF0bBwQCIukUTh2B5D-40" value="leading D0 mass window" style="rhombus;whiteSpace=wrap;html=1;" vertex="1" parent="77e6c97f196da883-2">
          <mxGeometry x="30" y="690" width="100" height="100" as="geometry" />
        </mxCell>
        <mxCell id="kAKF0bBwQCIukUTh2B5D-60" value="signal (inclusive)" style="rounded=1;whiteSpace=wrap;html=1;" vertex="1" parent="77e6c97f196da883-2">
          <mxGeometry x="20" y="820" width="120" height="60" as="geometry" />
        </mxCell>
        <mxCell id="kAKF0bBwQCIukUTh2B5D-73" value="" style="edgeStyle=orthogonalEdgeStyle;rounded=0;orthogonalLoop=1;jettySize=auto;html=1;" edge="1" parent="77e6c97f196da883-2" source="kAKF0bBwQCIukUTh2B5D-67" target="kAKF0bBwQCIukUTh2B5D-72">
          <mxGeometry relative="1" as="geometry" />
        </mxCell>
        <mxCell id="kAKF0bBwQCIukUTh2B5D-67" value="inclusive dN/dphi" style="rounded=1;whiteSpace=wrap;html=1;" vertex="1" parent="77e6c97f196da883-2">
          <mxGeometry x="20" y="1060" width="120" height="60" as="geometry" />
        </mxCell>
        <mxCell id="kAKF0bBwQCIukUTh2B5D-72" value="signal dN/dphi" style="rounded=1;whiteSpace=wrap;html=1;" vertex="1" parent="77e6c97f196da883-2">
          <mxGeometry x="20" y="1200" width="120" height="60" as="geometry" />
        </mxCell>
        <mxCell id="77e6c97f196da883-3" value="Lane 2" style="swimlane;html=1;startSize=20;" parent="77e6c97f196da883-1" vertex="1">
          <mxGeometry x="160" y="20" width="160" height="1300" as="geometry" />
        </mxCell>
        <mxCell id="kAKF0bBwQCIukUTh2B5D-6" value="D finder" style="rounded=1;whiteSpace=wrap;html=1;shadow=0;labelBackgroundColor=none;strokeWidth=1;fontFamily=Verdana;fontSize=8;align=center;" vertex="1" parent="77e6c97f196da883-3">
          <mxGeometry x="30" y="155" width="100" height="60" as="geometry" />
        </mxCell>
        <mxCell id="kAKF0bBwQCIukUTh2B5D-2" value="MC" style="shape=cylinder;whiteSpace=wrap;html=1;boundedLbl=1;backgroundOutline=1;" vertex="1" parent="77e6c97f196da883-3">
          <mxGeometry x="50" y="40" width="60" height="80" as="geometry" />
        </mxCell>
        <mxCell id="kAKF0bBwQCIukUTh2B5D-13" style="edgeStyle=orthogonalEdgeStyle;rounded=0;orthogonalLoop=1;jettySize=auto;html=1;exitX=0.5;exitY=1;exitDx=0;exitDy=0;entryX=0.5;entryY=0;entryDx=0;entryDy=0;" edge="1" parent="77e6c97f196da883-3" source="kAKF0bBwQCIukUTh2B5D-2" target="kAKF0bBwQCIukUTh2B5D-6">
          <mxGeometry relative="1" as="geometry">
            <mxPoint x="80" y="150" as="targetPoint" />
          </mxGeometry>
        </mxCell>
        <mxCell id="kAKF0bBwQCIukUTh2B5D-24" value="" style="edgeStyle=orthogonalEdgeStyle;rounded=0;orthogonalLoop=1;jettySize=auto;html=1;" edge="1" parent="77e6c97f196da883-3" source="kAKF0bBwQCIukUTh2B5D-21" target="kAKF0bBwQCIukUTh2B5D-23">
          <mxGeometry relative="1" as="geometry" />
        </mxCell>
        <mxCell id="kAKF0bBwQCIukUTh2B5D-23" value="D0 efficiency by centrality, pT and phi (uniformly generated)" style="rounded=1;whiteSpace=wrap;html=1;" vertex="1" parent="77e6c97f196da883-3">
          <mxGeometry x="20" y="460" width="120" height="60" as="geometry" />
        </mxCell>
        <mxCell id="kAKF0bBwQCIukUTh2B5D-21" value="reduced pT binning from BDT cuts" style="rounded=1;whiteSpace=wrap;html=1;" vertex="1" parent="77e6c97f196da883-3">
          <mxGeometry x="20" y="350" width="120" height="60" as="geometry" />
        </mxCell>
        <mxCell id="kAKF0bBwQCIukUTh2B5D-43" value="sideband (background)" style="rounded=1;whiteSpace=wrap;html=1;" vertex="1" parent="77e6c97f196da883-3">
          <mxGeometry x="20" y="710" width="120" height="60" as="geometry" />
        </mxCell>
        <mxCell id="kAKF0bBwQCIukUTh2B5D-68" value="bg Dn/dphi" style="rounded=1;whiteSpace=wrap;html=1;" vertex="1" parent="77e6c97f196da883-3">
          <mxGeometry x="20" y="1060" width="120" height="60" as="geometry" />
        </mxCell>
        <mxCell id="kAKF0bBwQCIukUTh2B5D-75" value="histogram subtraction" style="text;html=1;strokeColor=none;fillColor=none;align=center;verticalAlign=middle;whiteSpace=wrap;rounded=0;" vertex="1" parent="77e6c97f196da883-3">
          <mxGeometry x="-120" y="1160" width="230" height="20" as="geometry" />
        </mxCell>
        <mxCell id="77e6c97f196da883-4" value="Lane 3" style="swimlane;html=1;startSize=20;" parent="77e6c97f196da883-1" vertex="1">
          <mxGeometry x="320" y="20" width="160" height="1300" as="geometry" />
        </mxCell>
        <mxCell id="kAKF0bBwQCIukUTh2B5D-36" style="edgeStyle=orthogonalEdgeStyle;rounded=0;orthogonalLoop=1;jettySize=auto;html=1;entryX=0.48;entryY=0;entryDx=0;entryDy=0;entryPerimeter=0;exitX=0.858;exitY=1;exitDx=0;exitDy=0;exitPerimeter=0;" edge="1" parent="77e6c97f196da883-4" source="kAKF0bBwQCIukUTh2B5D-15" target="kAKF0bBwQCIukUTh2B5D-35">
          <mxGeometry relative="1" as="geometry">
            <mxPoint x="79" y="300" as="sourcePoint" />
            <Array as="points">
              <mxPoint x="78" y="325" />
              <mxPoint x="78" y="325" />
            </Array>
          </mxGeometry>
        </mxCell>
        <mxCell id="kAKF0bBwQCIukUTh2B5D-15" value="|dy| &amp;lt; 1 cm, " style="rounded=0;whiteSpace=wrap;html=1;" vertex="1" parent="77e6c97f196da883-4">
          <mxGeometry x="-300" y="240" width="440" height="60" as="geometry" />
        </mxCell>
        <mxCell id="kAKF0bBwQCIukUTh2B5D-3" value="&lt;div&gt;MC&lt;/div&gt;&lt;div&gt;k pi swap&lt;br&gt;&lt;/div&gt;" style="shape=cylinder;whiteSpace=wrap;html=1;boundedLbl=1;backgroundOutline=1;" vertex="1" parent="77e6c97f196da883-4">
          <mxGeometry x="50" y="40" width="60" height="80" as="geometry" />
        </mxCell>
        <mxCell id="kAKF0bBwQCIukUTh2B5D-19" style="edgeStyle=orthogonalEdgeStyle;rounded=0;orthogonalLoop=1;jettySize=auto;html=1;exitX=0.5;exitY=1;exitDx=0;exitDy=0;entryX=0.866;entryY=-0.017;entryDx=0;entryDy=0;entryPerimeter=0;" edge="1" parent="77e6c97f196da883-4" source="kAKF0bBwQCIukUTh2B5D-8" target="kAKF0bBwQCIukUTh2B5D-15">
          <mxGeometry relative="1" as="geometry" />
        </mxCell>
        <mxCell id="kAKF0bBwQCIukUTh2B5D-8" value="D finder" style="rounded=1;whiteSpace=wrap;html=1;shadow=0;labelBackgroundColor=none;strokeWidth=1;fontFamily=Verdana;fontSize=8;align=center;" vertex="1" parent="77e6c97f196da883-4">
          <mxGeometry x="30" y="155" width="100" height="60" as="geometry" />
        </mxCell>
        <mxCell id="kAKF0bBwQCIukUTh2B5D-14" style="edgeStyle=orthogonalEdgeStyle;rounded=0;orthogonalLoop=1;jettySize=auto;html=1;exitX=0.5;exitY=1;exitDx=0;exitDy=0;entryX=0.5;entryY=0;entryDx=0;entryDy=0;" edge="1" parent="77e6c97f196da883-4" source="kAKF0bBwQCIukUTh2B5D-3" target="kAKF0bBwQCIukUTh2B5D-8">
          <mxGeometry relative="1" as="geometry">
            <mxPoint x="80" y="150" as="targetPoint" />
          </mxGeometry>
        </mxCell>
        <mxCell id="kAKF0bBwQCIukUTh2B5D-66" style="edgeStyle=orthogonalEdgeStyle;rounded=0;orthogonalLoop=1;jettySize=auto;html=1;exitX=0.5;exitY=1;exitDx=0;exitDy=0;entryX=0.865;entryY=-0.015;entryDx=0;entryDy=0;entryPerimeter=0;" edge="1" parent="77e6c97f196da883-4" source="kAKF0bBwQCIukUTh2B5D-35" target="kAKF0bBwQCIukUTh2B5D-62">
          <mxGeometry relative="1" as="geometry" />
        </mxCell>
        <mxCell id="kAKF0bBwQCIukUTh2B5D-35" value="combinatorial D0 histogram PDF" style="rounded=1;whiteSpace=wrap;html=1;" vertex="1" parent="77e6c97f196da883-4">
          <mxGeometry x="20" y="350" width="120" height="60" as="geometry" />
        </mxCell>
        <mxCell id="kAKF0bBwQCIukUTh2B5D-62" value="unbinned ML fit to get number of D-Dbar pair in each dphi group " style="rounded=1;whiteSpace=wrap;html=1;" vertex="1" parent="77e6c97f196da883-4">
          <mxGeometry x="-300" y="940" width="440" height="60" as="geometry" />
        </mxCell>
        <mxCell id="kAKF0bBwQCIukUTh2B5D-18" style="edgeStyle=orthogonalEdgeStyle;rounded=0;orthogonalLoop=1;jettySize=auto;html=1;exitX=0.5;exitY=1;exitDx=0;exitDy=0;entryX=0.139;entryY=0.033;entryDx=0;entryDy=0;entryPerimeter=0;" edge="1" parent="77e6c97f196da883-1" source="77e6c97f196da883-9" target="kAKF0bBwQCIukUTh2B5D-15">
          <mxGeometry relative="1" as="geometry" />
        </mxCell>
        <mxCell id="kAKF0bBwQCIukUTh2B5D-20" style="edgeStyle=orthogonalEdgeStyle;rounded=0;orthogonalLoop=1;jettySize=auto;html=1;exitX=0.5;exitY=1;exitDx=0;exitDy=0;entryX=0.5;entryY=0;entryDx=0;entryDy=0;" edge="1" parent="77e6c97f196da883-1" source="kAKF0bBwQCIukUTh2B5D-6" target="kAKF0bBwQCIukUTh2B5D-15">
          <mxGeometry relative="1" as="geometry" />
        </mxCell>
        <mxCell id="kAKF0bBwQCIukUTh2B5D-22" style="edgeStyle=orthogonalEdgeStyle;rounded=0;orthogonalLoop=1;jettySize=auto;html=1;exitX=0.5;exitY=1;exitDx=0;exitDy=0;entryX=0.5;entryY=0;entryDx=0;entryDy=0;" edge="1" parent="77e6c97f196da883-1" source="kAKF0bBwQCIukUTh2B5D-15" target="kAKF0bBwQCIukUTh2B5D-21">
          <mxGeometry relative="1" as="geometry" />
        </mxCell>
        <mxCell id="kAKF0bBwQCIukUTh2B5D-28" style="edgeStyle=orthogonalEdgeStyle;rounded=0;orthogonalLoop=1;jettySize=auto;html=1;entryX=0.507;entryY=-0.006;entryDx=0;entryDy=0;exitX=0.138;exitY=0.982;exitDx=0;exitDy=0;exitPerimeter=0;entryPerimeter=0;" edge="1" parent="77e6c97f196da883-1" source="kAKF0bBwQCIukUTh2B5D-15" target="kAKF0bBwQCIukUTh2B5D-26">
          <mxGeometry relative="1" as="geometry">
            <mxPoint x="80" y="321" as="sourcePoint" />
          </mxGeometry>
        </mxCell>
        <mxCell id="kAKF0bBwQCIukUTh2B5D-39" style="edgeStyle=orthogonalEdgeStyle;rounded=0;orthogonalLoop=1;jettySize=auto;html=1;exitX=0.5;exitY=1;exitDx=0;exitDy=0;entryX=1;entryY=0.5;entryDx=0;entryDy=0;" edge="1" parent="77e6c97f196da883-1" source="kAKF0bBwQCIukUTh2B5D-23" target="kAKF0bBwQCIukUTh2B5D-37">
          <mxGeometry relative="1" as="geometry" />
        </mxCell>
        <mxCell id="kAKF0bBwQCIukUTh2B5D-44" style="edgeStyle=orthogonalEdgeStyle;rounded=0;orthogonalLoop=1;jettySize=auto;html=1;exitX=1;exitY=0.5;exitDx=0;exitDy=0;entryX=0;entryY=0.5;entryDx=0;entryDy=0;" edge="1" parent="77e6c97f196da883-1" source="kAKF0bBwQCIukUTh2B5D-40" target="kAKF0bBwQCIukUTh2B5D-43">
          <mxGeometry relative="1" as="geometry" />
        </mxCell>
        <mxCell id="kAKF0bBwQCIukUTh2B5D-64" style="edgeStyle=orthogonalEdgeStyle;rounded=0;orthogonalLoop=1;jettySize=auto;html=1;exitX=0.5;exitY=1;exitDx=0;exitDy=0;entryX=0.135;entryY=0.012;entryDx=0;entryDy=0;entryPerimeter=0;" edge="1" parent="77e6c97f196da883-1" source="kAKF0bBwQCIukUTh2B5D-60" target="kAKF0bBwQCIukUTh2B5D-62">
          <mxGeometry relative="1" as="geometry" />
        </mxCell>
        <mxCell id="kAKF0bBwQCIukUTh2B5D-65" style="edgeStyle=orthogonalEdgeStyle;rounded=0;orthogonalLoop=1;jettySize=auto;html=1;exitX=0.5;exitY=1;exitDx=0;exitDy=0;entryX=0.5;entryY=0;entryDx=0;entryDy=0;" edge="1" parent="77e6c97f196da883-1" source="kAKF0bBwQCIukUTh2B5D-43" target="kAKF0bBwQCIukUTh2B5D-62">
          <mxGeometry relative="1" as="geometry" />
        </mxCell>
        <mxCell id="kAKF0bBwQCIukUTh2B5D-69" style="edgeStyle=orthogonalEdgeStyle;rounded=0;orthogonalLoop=1;jettySize=auto;html=1;exitX=0.5;exitY=1;exitDx=0;exitDy=0;entryX=0.5;entryY=0;entryDx=0;entryDy=0;" edge="1" parent="77e6c97f196da883-1" source="kAKF0bBwQCIukUTh2B5D-62" target="kAKF0bBwQCIukUTh2B5D-68">
          <mxGeometry relative="1" as="geometry" />
        </mxCell>
        <mxCell id="kAKF0bBwQCIukUTh2B5D-71" value="" style="endArrow=classic;html=1;entryX=0.5;entryY=0;entryDx=0;entryDy=0;exitX=0.137;exitY=1.004;exitDx=0;exitDy=0;exitPerimeter=0;" edge="1" parent="77e6c97f196da883-1" source="kAKF0bBwQCIukUTh2B5D-62" target="kAKF0bBwQCIukUTh2B5D-67">
          <mxGeometry width="50" height="50" relative="1" as="geometry">
            <mxPoint x="80" y="1023" as="sourcePoint" />
            <mxPoint x="105" y="1010" as="targetPoint" />
          </mxGeometry>
        </mxCell>
        <mxCell id="kAKF0bBwQCIukUTh2B5D-74" style="edgeStyle=orthogonalEdgeStyle;rounded=0;orthogonalLoop=1;jettySize=auto;html=1;exitX=0.5;exitY=1;exitDx=0;exitDy=0;entryX=1;entryY=0.5;entryDx=0;entryDy=0;" edge="1" parent="77e6c97f196da883-1" source="kAKF0bBwQCIukUTh2B5D-68" target="kAKF0bBwQCIukUTh2B5D-72">
          <mxGeometry relative="1" as="geometry" />
        </mxCell>
      </root>
    </mxGraphModel>
  </diagram>
</mxfile>
